#!OML:ASF H:\Dans Jumps\Project 1\Capture day 1\Session 1\subject.ASF
:FULLY-SPECIFIED
:DEGREES
240
root 0.545864 16.8757 -15.2573 14.2386 -1.93637 -2.28808
lowerback 12.5176 0.0498143 0.915206
upperback 6.73653 0.184234 2.42149
thorax 0.0314804 0.0679556 1.97805
lowerneck -16.9083 1.09258 -1.87674
upperneck 12.6623 2.21752 -1.76996
head 6.63321 0.816998 -0.0350811
rclavicle -1.15295e-014 -1.70955e-014
rhumerus -18.0193 -10.978 -80.0607
rradius 27.4676
rwrist 27.3579
rhand -19.7045 -26.7683
rfingers 7.12502
rthumb 6.62504 -56.6447
lclavicle -1.15295e-014 -1.70955e-014
lhumerus -18.3723 -5.94934 86.7422
lradius 22.4397
lwrist 10.6052
lhand -26.922 -3.67747
lfingers 7.12502
lthumb -0.344757 26.302
rfemur -37.7066 -2.39598 21.5074
rtibia 41.6285
rfoot -17.4962 -3.04067
rtoes 1.50362
lfemur -37.7584 9.61383 -20.2063
ltibia 41.1817
lfoot -16.5834 3.18645
ltoes -9.99879
241
root 0.546331 16.8424 -15.2951 14.585 -1.96242 -2.29549
lowerback 12.8372 0.058082 0.90223
upperback 6.81087 0.198897 2.41775
thorax -0.0624142 0.0745698 1.98052
lowerneck -16.9508 1.09744 -1.88136
upperneck 12.237 2.21614 -1.7748
head 6.50302 0.82246 -0.0373316
rclavicle -9.54166e-015 -1.07344e-014
rhumerus -18.1786 -11.0709 -79.8503
rradius 27.4209
rwrist 27.4329
rhand -19.6639 -26.7048
rfingers 7.12502
rthumb 6.66425 -56.5799
lclavicle -9.54166e-015 -1.07344e-014
lhumerus -18.5252 -5.74844 86.5702
lradius 22.3162
lwrist 10.6624
lhand -26.9141 -3.65186
lfingers 7.12502
lthumb -0.337095 26.3276
rfemur -38.6305 -2.4207 21.5566
rtibia 42.3328
rfoot -17.6449 -3.02368
rtoes 1.46821
lfemur -38.6836 9.59642 -20.2766
ltibia 41.9018
lfoot -16.7288 3.27499
ltoes -10.0022
242
root 0.546867 16.808 -15.3326 14.9369 -1.98709 -2.30323
lowerback 13.1564 0.065794 0.890526
upperback 6.88195 0.212895 2.41171
thorax -0.159047 0.080932 1.97988
lowerneck -16.9894 1.10378 -1.87805
upperneck 11.8036 2.21515 -1.78336
head 6.36997 0.828335 -0.0420822
rclavicle -6.95746e-015 1.19271e-015
rhumerus -18.3501 -11.1767 -79.6387
rradius 27.3712
rwrist 27.5384
rhand -19.6329 -26.615
rfingers 7.12502
rthumb 6.69421 -56.4892
lclavicle -6.95746e-015 1.19271e-015
lhumerus -18.6907 -5.55256 86.4013
lradius 22.1926
lwrist 10.699
lhand -26.862 -3.5094
lfingers 7.12502
lthumb -0.286826 26.4702
rfemur -39.5644 -2.44881 21.6076
rtibia 43.0429
rfoot -17.7921 -3.0034
rtoes 1.4259
lfemur -39.618 9.56918 -20.3451
ltibia 42.6284
lfoot -16.874 3.37507
ltoes -10.0038
243
root 0.547517 16.7728 -15.3698 15.2906 -2.00827 -2.30869
lowerback 13.4762 0.0718311 0.87771
upperback 6.95058 0.224518 2.40417
thorax -0.258108 0.0861208 1.97854
lowerneck -17.0212 1.11125 -1.86569
upperneck 11.3603 2.21444 -1.80069
head 6.23317 0.834215 -0.051158
rclavicle -5.96354e-016 6.75868e-015
rhumerus -18.5344 -11.289 -79.426
rradius 27.3186
rwrist 27.658
rhand -19.6182 -26.5078
rfingers 7.12502
rthumb 6.70839 -56.3815
lclavicle -5.96354e-016 6.75868e-015
lhumerus -18.8685 -5.35438 86.2352
lradius 22.0804
lwrist 10.7331
lhand -26.8593 -3.4196
lfingers 7.12502
lthumb -0.284163 26.56
rfemur -40.5035 -2.48068 21.6571
rtibia 43.7591
rfoot -17.9397 -2.98262
rtoes 1.38073
lfemur -40.5558 9.52947 -20.414
ltibia 43.3607
lfoot -17.0189 3.48888
ltoes -10.0105
244
root 0.548198 16.7366 -15.4067 15.6474 -2.0265 -2.31055
lowerback 13.7952 0.0770527 0.859975
upperback 7.01599 0.234442 2.39606
thorax -0.359742 0.0903711 1.97958
lowerneck -17.04 1.11826 -1.85294
upperneck 10.9043 2.21251 -1.81952
head 6.09051 0.839687 -0.0610098
rclavicle 6.75868e-015 2.38542e-015
rhumerus -18.7324 -11.402 -79.2126
rradius 27.2683
rwrist 27.7754
rhand -19.6077 -26.4054
rfingers 7.12502
rthumb 6.71855 -56.2788
lclavicle 6.75868e-015 2.38542e-015
lhumerus -19.0567 -5.15543 86.0735
lradius 21.9675
lwrist 10.7568
lhand -26.8134 -3.26837
lfingers 7.12502
lthumb -0.239822 26.7112
rfemur -41.4506 -2.51218 21.7031
rtibia 44.4828
rfoot -18.0899 -2.96603
rtoes 1.3228
lfemur -41.4989 9.47824 -20.4844
ltibia 44.0976
lfoot -17.1621 3.6177
ltoes -10.0363
245
root 0.548817 16.6992 -15.4432 16.005 -2.04149 -2.31118
lowerback 14.1182 0.0819296 0.836872
upperback 7.07646 0.243387 2.39026
thorax -0.468247 0.0939957 1.98618
lowerneck -17.049 1.12507 -1.84413
upperneck 10.4447 2.21098 -1.83935
head 5.9454 0.845232 -0.0705675
rclavicle 3.97569e-016 -2.06736e-014
rhumerus -18.9476 -11.503 -78.9972
rradius 27.2264
rwrist 27.8686
rhand -19.5964 -26.3382
rfingers 7.12502
rthumb 6.72948 -56.2113
lclavicle 3.97569e-016 -2.06736e-014
lhumerus -19.2641 -4.95846 85.9214
lradius 21.8561
lwrist 10.7601
lhand -26.7366 -3.07293
lfingers 7.12502
lthumb -0.165663 26.9067
rfemur -42.4016 -2.53923 21.7471
rtibia 45.2143
rfoot -18.2442 -2.95911
rtoes 1.24622
lfemur -42.4451 9.41876 -20.554
ltibia 44.8401
lfoot -17.3049 3.75855
ltoes -10.0824
246
root 0.549282 16.6607 -15.4791 16.364 -2.05523 -2.30965
lowerback 14.4373 0.0874002 0.804184
upperback 7.13545 0.251749 2.38733
thorax -0.575879 0.0970675 2.00126
lowerneck -17.0556 1.13149 -1.84043
upperneck 9.98441 2.20991 -1.85884
head 5.80001 0.850864 -0.0791524
rclavicle 4.37326e-015 -1.35174e-014
rhumerus -19.1765 -11.5944 -78.7784
rradius 27.191
rwrist 27.9453
rhand -19.5905 -26.2792
rfingers 7.12502
rthumb 6.73518 -56.1521
lclavicle 4.37326e-015 -1.35174e-014
lhumerus -19.4827 -4.765 85.7809
lradius 21.7362
lwrist 10.7391
lhand -26.6843 -2.94899
lfingers 7.12502
lthumb -0.115185 27.0307
rfemur -43.3564 -2.55798 21.7864
rtibia 45.9546
rfoot -18.4061 -2.96246
rtoes 1.16201
lfemur -43.3946 9.35665 -20.6246
ltibia 45.5893
lfoot -17.4499 3.90596
ltoes -10.1501
247
root 0.549612 16.6211 -15.5143 16.7245 -2.07096 -2.30827
lowerback 14.7478 0.0943085 0.765032
upperback 7.19451 0.260762 2.38593
thorax -0.678544 0.100288 2.02148
lowerneck -17.0592 1.13642 -1.84388
upperneck 9.52382 2.20767 -1.87357
head 5.65423 0.856084 -0.0852116
rclavicle 5.36719e-015 -1.61016e-014
rhumerus -19.4138 -11.6789 -78.5598
rradius 27.1608
rwrist 27.9978
rhand -19.5741 -26.2396
rfingers 7.12502
rthumb 6.75096 -56.1119
lclavicle 5.36719e-015 -1.61016e-014
lhumerus -19.7072 -4.5792 85.6496
lradius 21.6068
lwrist 10.6962
lhand -26.6482 -2.84817
lfingers 7.12502
lthumb -0.0802863 27.1316
rfemur -44.3139 -2.56515 21.8226
rtibia 46.7032
rfoot -18.5749 -2.97468
rtoes 1.07742
lfemur -44.3483 9.29958 -20.6959
ltibia 46.3473
lfoot -17.5993 4.05461
ltoes -10.2312
248
root 0.549747 16.5803 -15.5485 17.0855 -2.08912 -2.30918
lowerback 15.0488 0.102969 0.721714
upperback 7.25502 0.27101 2.38519
thorax -0.774353 0.104005 2.04452
lowerneck -17.0642 1.1412 -1.84988
upperneck 9.06525 2.20539 -1.88475
head 5.50958 0.861462 -0.0897243
rclavicle -1.05356e-014 2.08724e-014
rhumerus -19.6513 -11.7574 -78.3436
rradius 27.1319
rwrist 28.0222
rhand -19.5465 -26.2123
rfingers 7.12502
rthumb 6.77763 -56.0839
lclavicle -1.05356e-014 2.08724e-014
lhumerus -19.9324 -4.39761 85.5227
lradius 21.4704
lwrist 10.6316
lhand -26.6096 -2.74662
lfingers 7.12502
lthumb -0.0430101 27.2331
rfemur -45.273 -2.5594 21.8577
rtibia 47.4601
rfoot -18.7483 -2.99609
rtoes 0.987997
lfemur -45.306 9.25164 -20.7664
ltibia 47.1145
lfoot -17.754 4.20031
ltoes -10.3249
249
root 0.549619 16.5381 -15.5818 17.4492 -2.11015 -2.31281
lowerback 15.3377 0.113647 0.674997
upperback 7.31649 0.282844 2.38384
thorax -0.862466 0.10843 2.06856
lowerneck -17.0657 1.14367 -1.8574
upperneck 8.60313 2.19955 -1.89129
head 5.36348 0.865518 -0.0929034
rclavicle 3.18055e-015 7.55382e-015
rhumerus -19.8934 -11.8472 -78.1287
rradius 27.0972
rwrist 28.0428
rhand -19.5227 -26.157
rfingers 7.12502
rthumb 6.80063 -56.0278
lclavicle 3.18055e-015 7.55382e-015
lhumerus -20.1528 -4.21561 85.3968
lradius 21.3177
lwrist 10.5458
lhand -26.5636 -2.65283
lfingers 7.12502
lthumb 0.0014232 27.3269
rfemur -46.237 -2.54005 21.8923
rtibia 48.2241
rfoot -18.9219 -3.02546
rtoes 0.910137
lfemur -46.271 9.21618 -20.8367
ltibia 47.8915
lfoot -17.9134 4.3372
ltoes -10.4124
250
root 0.54933 16.4946 -15.6143 17.8117 -2.13403 -2.31984
lowerback 15.6178 0.12708 0.627766
upperback 7.37964 0.297643 2.38191
thorax -0.943927 0.114305 2.09175
lowerneck -17.0657 1.14489 -1.86175
upperneck 8.1393 2.19136 -1.89884
head 5.21695 0.868512 -0.0971445
rclavicle -8.54774e-015 -2.18663e-014
rhumerus -20.1332 -11.9453 -77.9163
rradius 27.0589
rwrist 28.0531
rhand -19.4871 -26.1121
rfingers 7.12502
rthumb 6.83492 -55.9818
lclavicle -8.54774e-015 -2.18663e-014
lhumerus -20.3748 -4.04447 85.274
lradius 21.1686
lwrist 10.444
lhand -26.507 -2.55734
lfingers 7.12502
lthumb 0.0561066 27.4224
rfemur -47.2023 -2.51246 21.9288
rtibia 48.9945
rfoot -19.0931 -3.05769
rtoes 0.841544
lfemur -47.2386 9.19209 -20.9058
ltibia 48.6771
lfoot -18.0753 4.46748
ltoes -10.5002
251
root 0.548846 16.4499 -15.6462 18.1711 -2.1587 -2.33072
lowerback 15.8927 0.142161 0.58255
upperback 7.44329 0.3144 2.37846
thorax -1.0218 0.121212 2.11184
lowerneck -17.0635 1.14501 -1.86029
upperneck 7.67544 2.18066 -1.90912
head 5.07047 0.870284 -0.103405
rclavicle -1.37161e-014 -1.82882e-014
rhumerus -20.3765 -12.0573 -77.7064
rradius 27.0156
rwrist 28.0695
rhand -19.4485 -26.08
rfingers 7.12502
rthumb 6.87219 -55.9485
lclavicle -1.37161e-014 -1.82882e-014
lhumerus -20.599 -3.87788 85.1513
lradius 21.0255
lwrist 10.3282
lhand -26.4325 -2.46688
lfingers 7.12502
lthumb 0.12804 27.5128
rfemur -48.1671 -2.48356 21.9711
rtibia 49.7699
rfoot -19.2588 -3.0928
rtoes 0.770732
lfemur -48.2073 9.1764 -20.972
ltibia 49.4704
lfoot -18.2352 4.59348
ltoes -10.5959
252
root 0.548242 16.4041 -15.6773 18.5217 -2.18475 -2.34395
lowerback 16.1681 0.158037 0.537889
upperback 7.50901 0.331871 2.37311
thorax -1.09746 0.128494 2.12942
lowerneck -17.0659 1.14667 -1.84915
upperneck 7.2184 2.17108 -1.92737
head 4.92738 0.872178 -0.113542
rclavicle 7.35503e-015 -1.31198e-014
rhumerus -20.6241 -12.167 -77.5035
rradius 26.9764
rwrist 28.0913
rhand -19.4016 -26.0693
rfingers 7.12502
rthumb 6.91749 -55.9362
lclavicle 7.35503e-015 -1.31198e-014
lhumerus -20.825 -3.72507 85.0303
lradius 20.8916
lwrist 10.2138
lhand -26.3443 -2.39283
lfingers 7.12502
lthumb 0.213226 27.5868
rfemur -49.1256 -2.45599 22.0182
rtibia 50.5484
rfoot -19.419 -3.12887
rtoes 0.694942
lfemur -49.1689 9.16526 -21.0343
ltibia 50.2693
lfoot -18.3937 4.71849
ltoes -10.6936
